<svg id="Layer_1" data-name="Layer 1" xmlns="http://www.w3.org/2000/svg" viewBox="0 0 145.41 182.87">
  <defs>
    <style>
      .cls-1 {
        fill: #e9e9e9;
      }
    </style>
  </defs>
  <title>TSI-Logo_white</title>
  <g>
    <path class="cls-1" d="M118.89,103.31l-12.92-3V74.38h67.84l-2-9.5h-115c4.26-10.38,19-18.14,49.47-18.14,19.89,0,31.83,3.09,42,6.63l-2.87-11.49c-6-1.77-20.55-4.65-40-4.65-1.43,0-2.83,0-4.2,0h-.41c-32.7.87-50.56,11.07-54.61,27.59H30.39l-2,9.5H45.35c1,18.53,17,25.29,32.88,29.15l18,4.33v57.86q-3.25.14-6.75.13c-17.68,0-31.83-3.09-45.09-8.62L47.07,169c9.72,3.31,25,6.41,44.42,6.41,1.62,0,3.2,0,4.76-.06v19.08H106V174.81c32.73-2.65,48.94-15,48.94-37.69C154.91,121.65,141.87,108.62,118.89,103.31ZM96.25,98l-9.4-2.2C66.12,91,56.66,86.26,55.57,74.38H96.25ZM106,165V110.2l6.29,1.51c23.65,5.75,32.26,14.36,32.26,27.4C144.52,151.47,133.42,162.08,106,165Z" transform="translate(-28.4 -11.51)"/>
    <rect class="cls-1" x="95" y="14" width="12" height="12" transform="translate(-12.96 65.76) rotate(-45)"/>
  </g>
</svg>
