<svg id="Layer_1" data-name="Layer 1" xmlns="http://www.w3.org/2000/svg" viewBox="0 0 145.41 182.87">
  <defs>
    <style>
      .cls-1 {
        fill: #adadad;
      }

      .cls-2 {
        fill: #b62425;
      }
    </style>
  </defs>
  <title>TSI-Logo_color</title>
  <g>
    <path class="cls-1" d="M96.25,98v9.86L106,110.2v-9.92Z" transform="translate(-28.4 -11.51)"/>
    <polygon class="cls-1" points="77.57 98.69 77.57 182.87 67.85 182.87 67.85 96.34 77.57 98.69"/>
    <polygon class="cls-1" points="145.41 62.87 77.57 62.87 77.57 88.77 67.85 86.48 67.85 62.87 0 62.87 1.99 53.37 143.43 53.37 145.41 62.87"/>
  </g>
  <path class="cls-2" d="M118.89,103.31l-12.92-3L96.25,98l-9.4-2.2C66.12,91,56.66,86.26,55.57,74.38H45.35c1,18.53,17,25.29,32.88,29.15l18,4.33L106,110.2l6.29,1.51c23.65,5.75,32.26,14.36,32.26,27.4,0,12.36-11.1,23-38.55,25.93v9.77c32.73-2.65,48.94-15,48.94-37.69C154.91,121.65,141.87,108.62,118.89,103.31ZM44.41,157.23,47.07,169c9.72,3.31,25,6.41,44.42,6.41,1.62,0,3.2,0,4.76-.06v-9.58q-3.25.14-6.75.13C71.82,165.85,57.67,162.76,44.41,157.23Zm101-115.35c-6-1.77-20.55-4.65-40-4.65-1.43,0-2.83,0-4.2,0h-.41c-32.7.87-50.56,11.07-54.61,27.59H56.82c4.26-10.38,19-18.14,49.47-18.14,19.89,0,31.83,3.09,42,6.63Z" transform="translate(-28.4 -11.51)"/>
  <rect class="cls-1" x="95" y="14" width="12" height="12" transform="translate(-12.96 65.76) rotate(-45)"/>
</svg>
